# xmcd
#
# Track frame offsets: 
#        150
#        30711
#        55584
#        78242
#        104542
#        129429
#        149725
#        174020
#        195735
#        221585
#        236798
#        268355
#        289177
#        315214
#
# Disc length: 4435 seconds
#
# Revision: 0
# Processed by: cddbd v1.4PL0 Copyright (c) Steve Scherf et al.
# Submitted via: ExactAudioCopy v0.90b2
#
DISCID=cb11510e
DTITLE=George Michael - Ladies and Gentlemen CD1 (For The  Heart)
DYEAR=1998
DGENRE=
TTITLE0=Jesus To A Child
TTITLE1=Father Figure
TTITLE2=Careless Whisper
TTITLE3=Don't Let The Sun Go Down On Me
TTITLE4=You Have Been Loved
TTITLE5=Kissing Fool
TTITLE6=I Can't Make You Love Me
TTITLE7=Heal The Pain
TTITLE8=A Moment With You
TTITLE9=Desafinado
TTITLE10=Cowboys And Angels
TTITLE11=Praying For Time
TTITLE12=One More Try
TTITLE13=A Different Corner
EXTD=Submitted by Montigomo
EXTT0=
EXTT1=
EXTT2=
EXTT3=
EXTT4=
EXTT5=
EXTT6=
EXTT7=
EXTT8=
EXTT9=
EXTT10=
EXTT11=
EXTT12=
EXTT13=
PLAYORDER=
